<svg width="360" height="64" viewBox="0 0 360 64" fill="none" xmlns="http://www.w3.org/2000/svg">
<rect width="90" height="64" fill="black"/>
<path d="M45 14.0996L34 24H37V33H44V27H46V33H53V24H56L45 14.0996ZM45 16.791L51 22.1914V23V31H48V25H42V31H39V22.1914L45 16.791Z" fill="white"/>
<path d="M32.8592 47H32.0528V39.0704H32.8592V47ZM35.6006 41.7584C35.6155 41.9003 35.6267 42.0571 35.6342 42.2288C35.6416 42.4005 35.6454 42.5424 35.6454 42.6544H35.6678C35.8171 42.3483 36.0598 42.1019 36.3958 41.9152C36.7318 41.7211 37.0864 41.624 37.4598 41.624C38.1243 41.624 38.6208 41.8219 38.9494 42.2176C39.2854 42.6133 39.4534 43.136 39.4534 43.7856V47H38.6918V44.0992C38.6918 43.8229 38.6694 43.5728 38.6246 43.3488C38.5798 43.1248 38.5014 42.9344 38.3894 42.7776C38.2848 42.6133 38.1392 42.4864 37.9526 42.3968C37.7734 42.3072 37.5456 42.2624 37.2694 42.2624C37.0678 42.2624 36.8699 42.3035 36.6758 42.3856C36.4891 42.4677 36.3211 42.5947 36.1718 42.7664C36.0224 42.9307 35.903 43.1435 35.8134 43.4048C35.7238 43.6587 35.679 43.9611 35.679 44.312V47H34.9174V42.912C34.9174 42.7701 34.9136 42.5872 34.9062 42.3632C34.8987 42.1392 34.8875 41.9376 34.8726 41.7584H35.6006ZM42.198 47H41.4364V41.7584H42.198V47ZM42.3548 39.7424C42.3548 39.8992 42.2988 40.0299 42.1868 40.1344C42.0748 40.2315 41.9516 40.28 41.8172 40.28C41.6828 40.28 41.5596 40.2315 41.4476 40.1344C41.3356 40.0299 41.2796 39.8992 41.2796 39.7424C41.2796 39.5856 41.3356 39.4587 41.4476 39.3616C41.5596 39.2571 41.6828 39.2048 41.8172 39.2048C41.9516 39.2048 42.0748 39.2571 42.1868 39.3616C42.2988 39.4587 42.3548 39.5856 42.3548 39.7424ZM47.9996 42.9568C47.8727 42.7552 47.686 42.5909 47.4396 42.464C47.2007 42.3296 46.9393 42.2624 46.6556 42.2624C46.3495 42.2624 46.0732 42.3184 45.8268 42.4304C45.5804 42.5349 45.3676 42.6843 45.1884 42.8784C45.0167 43.0651 44.8823 43.2891 44.7852 43.5504C44.6956 43.8043 44.6508 44.0805 44.6508 44.3792C44.6508 44.6779 44.6956 44.9541 44.7852 45.208C44.8823 45.4619 45.0167 45.6859 45.1884 45.88C45.3601 46.0667 45.5692 46.216 45.8156 46.328C46.062 46.4325 46.3383 46.4848 46.6444 46.4848C46.9804 46.4848 47.2641 46.4213 47.4956 46.2944C47.7271 46.1675 47.9175 46.0032 48.0668 45.8016L48.638 46.2272C48.414 46.5035 48.1377 46.7237 47.8092 46.888C47.4881 47.0523 47.0999 47.1344 46.6444 47.1344C46.2188 47.1344 45.8343 47.0672 45.4908 46.9328C45.1473 46.7909 44.8524 46.5968 44.606 46.3504C44.3671 46.104 44.1804 45.8128 44.046 45.4768C43.9116 45.1408 43.8444 44.7749 43.8444 44.3792C43.8444 43.9835 43.9116 43.6176 44.046 43.2816C44.1804 42.9456 44.3671 42.6544 44.606 42.408C44.8524 42.1616 45.1473 41.9712 45.4908 41.8368C45.8343 41.6949 46.2188 41.624 46.6444 41.624C46.9953 41.624 47.35 41.7024 47.7084 41.8592C48.0743 42.0085 48.3692 42.2325 48.5932 42.5312L47.9996 42.9568ZM50.598 47H49.8364V41.7584H50.598V47ZM50.7548 39.7424C50.7548 39.8992 50.6988 40.0299 50.5868 40.1344C50.4748 40.2315 50.3516 40.28 50.2172 40.28C50.0828 40.28 49.9596 40.2315 49.8476 40.1344C49.7356 40.0299 49.6796 39.8992 49.6796 39.7424C49.6796 39.5856 49.7356 39.4587 49.8476 39.3616C49.9596 39.2571 50.0828 39.2048 50.2172 39.2048C50.3516 39.2048 50.4748 39.2571 50.5868 39.3616C50.6988 39.4587 50.7548 39.5856 50.7548 39.7424ZM57.8332 44.3792C57.8332 44.7749 57.7623 45.1408 57.6204 45.4768C57.486 45.8128 57.2956 46.104 57.0492 46.3504C56.8028 46.5968 56.5079 46.7909 56.1644 46.9328C55.8209 47.0672 55.4439 47.1344 55.0332 47.1344C54.63 47.1344 54.2567 47.0672 53.9132 46.9328C53.5697 46.7909 53.2748 46.5968 53.0284 46.3504C52.782 46.104 52.5879 45.8128 52.446 45.4768C52.3116 45.1408 52.2444 44.7749 52.2444 44.3792C52.2444 43.9835 52.3116 43.6176 52.446 43.2816C52.5879 42.9456 52.782 42.6544 53.0284 42.408C53.2748 42.1616 53.5697 41.9712 53.9132 41.8368C54.2567 41.6949 54.63 41.624 55.0332 41.624C55.4439 41.624 55.8209 41.6949 56.1644 41.8368C56.5079 41.9712 56.8028 42.1616 57.0492 42.408C57.2956 42.6544 57.486 42.9456 57.6204 43.2816C57.7623 43.6176 57.8332 43.9835 57.8332 44.3792ZM57.0268 44.3792C57.0268 44.088 56.9783 43.8155 56.8812 43.5616C56.7916 43.3003 56.6609 43.0763 56.4892 42.8896C56.3175 42.6955 56.1084 42.5424 55.862 42.4304C55.6156 42.3184 55.3393 42.2624 55.0332 42.2624C54.7271 42.2624 54.4508 42.3184 54.2044 42.4304C53.9655 42.5424 53.7601 42.6955 53.5884 42.8896C53.4167 43.0763 53.2823 43.3003 53.1852 43.5616C53.0956 43.8155 53.0508 44.088 53.0508 44.3792C53.0508 44.6704 53.0956 44.9467 53.1852 45.208C53.2823 45.4619 53.4167 45.6859 53.5884 45.88C53.7601 46.0667 53.9655 46.216 54.2044 46.328C54.4508 46.4325 54.7271 46.4848 55.0332 46.4848C55.3393 46.4848 55.6156 46.4325 55.862 46.328C56.1084 46.216 56.3175 46.0667 56.4892 45.88C56.6609 45.6859 56.7916 45.4619 56.8812 45.208C56.9783 44.9467 57.0268 44.6704 57.0268 44.3792Z" fill="white"/>
<rect x="90" width="90" height="64" fill="black"/>
<g clip-path="url(#clip0_7_216)">
<path d="M127 15C125.897 15 125 15.897 125 17V31C125 32.103 125.897 33 127 33H135V31H127V17H143V25.2852L145 26.4082V17C145 15.897 144.103 15 143 15H127ZM129.002 19V21H131V19H129.002ZM139 19V21H141V19H139ZM129 23V25H131V23H129ZM138.086 25C137.514 25.019 137 25.492 137 26.1445V34.8555C137 35.7255 137.913 36.2764 138.66 35.8574L146.42 31.502C147.194 31.067 147.194 29.932 146.42 29.498L138.66 25.1426C138.473 25.0378 138.277 24.9937 138.086 25ZM129 27V29H131V27H129Z" fill="#686868"/>
</g>
<path d="M99.0528 39.0704H101.293C101.696 39.0704 102.062 39.1152 102.39 39.2048C102.719 39.2869 102.999 39.4176 103.23 39.5968C103.469 39.7685 103.652 39.9888 103.779 40.2576C103.906 40.5189 103.97 40.8288 103.97 41.1872C103.97 41.5456 103.902 41.8592 103.768 42.128C103.641 42.3893 103.458 42.6096 103.219 42.7888C102.988 42.9605 102.704 43.0912 102.368 43.1808C102.039 43.2704 101.674 43.3152 101.27 43.3152H99.8592V47H99.0528V39.0704ZM99.8592 42.632H101.226C101.86 42.632 102.342 42.5088 102.67 42.2624C102.999 42.016 103.163 41.6576 103.163 41.1872C103.163 40.6944 102.991 40.336 102.648 40.112C102.312 39.8805 101.838 39.7648 101.226 39.7648H99.8592V42.632ZM104.969 42.912C104.969 42.7701 104.965 42.5872 104.958 42.3632C104.95 42.1392 104.939 41.9376 104.924 41.7584H105.652C105.667 41.9003 105.678 42.0571 105.686 42.2288C105.693 42.4005 105.697 42.5424 105.697 42.6544H105.719C105.869 42.3483 106.093 42.1019 106.391 41.9152C106.69 41.7211 107.026 41.624 107.399 41.624C107.496 41.624 107.582 41.6277 107.657 41.6352C107.739 41.6427 107.821 41.6576 107.903 41.68L107.803 42.3968C107.758 42.3819 107.683 42.3669 107.579 42.352C107.474 42.3371 107.369 42.3296 107.265 42.3296C107.063 42.3296 106.869 42.3669 106.683 42.4416C106.496 42.5163 106.332 42.6357 106.19 42.8C106.055 42.9568 105.943 43.1621 105.854 43.416C105.772 43.6624 105.731 43.9611 105.731 44.312V47H104.969V42.912ZM114.016 44.3792C114.016 44.7749 113.945 45.1408 113.803 45.4768C113.669 45.8128 113.478 46.104 113.232 46.3504C112.986 46.5968 112.691 46.7909 112.347 46.9328C112.004 47.0672 111.627 47.1344 111.216 47.1344C110.813 47.1344 110.439 47.0672 110.096 46.9328C109.753 46.7909 109.458 46.5968 109.211 46.3504C108.965 46.104 108.771 45.8128 108.629 45.4768C108.494 45.1408 108.427 44.7749 108.427 44.3792C108.427 43.9835 108.494 43.6176 108.629 43.2816C108.771 42.9456 108.965 42.6544 109.211 42.408C109.458 42.1616 109.753 41.9712 110.096 41.8368C110.439 41.6949 110.813 41.624 111.216 41.624C111.627 41.624 112.004 41.6949 112.347 41.8368C112.691 41.9712 112.986 42.1616 113.232 42.408C113.478 42.6544 113.669 42.9456 113.803 43.2816C113.945 43.6176 114.016 43.9835 114.016 44.3792ZM113.21 44.3792C113.21 44.088 113.161 43.8155 113.064 43.5616C112.974 43.3003 112.844 43.0763 112.672 42.8896C112.5 42.6955 112.291 42.5424 112.045 42.4304C111.798 42.3184 111.522 42.2624 111.216 42.2624C110.91 42.2624 110.634 42.3184 110.387 42.4304C110.148 42.5424 109.943 42.6955 109.771 42.8896C109.599 43.0763 109.465 43.3003 109.368 43.5616C109.278 43.8155 109.234 44.088 109.234 44.3792C109.234 44.6704 109.278 44.9467 109.368 45.208C109.465 45.4619 109.599 45.6859 109.771 45.88C109.943 46.0667 110.148 46.216 110.387 46.328C110.634 46.4325 110.91 46.4848 111.216 46.4848C111.522 46.4848 111.798 46.4325 112.045 46.328C112.291 46.216 112.5 46.0667 112.672 45.88C112.844 45.6859 112.974 45.4619 113.064 45.208C113.161 44.9467 113.21 44.6704 113.21 44.3792ZM111.418 40.6832H110.757L111.877 39.0704H112.896L111.418 40.6832ZM116.821 44.2896L114.884 41.7584H115.858L117.292 43.752L118.725 41.7584H119.644L117.74 44.256L119.823 47H118.837L117.28 44.816L115.679 47H114.76L116.821 44.2896ZM121.787 47H121.025V41.7584H121.787V47ZM121.944 39.7424C121.944 39.8992 121.888 40.0299 121.776 40.1344C121.664 40.2315 121.541 40.28 121.406 40.28C121.272 40.28 121.149 40.2315 121.037 40.1344C120.925 40.0299 120.869 39.8992 120.869 39.7424C120.869 39.5856 120.925 39.4587 121.037 39.3616C121.149 39.2571 121.272 39.2048 121.406 39.2048C121.541 39.2048 121.664 39.2571 121.776 39.3616C121.888 39.4587 121.944 39.5856 121.944 39.7424ZM124.565 42.6544C124.714 42.3483 124.942 42.1019 125.248 41.9152C125.561 41.7211 125.909 41.624 126.289 41.624C126.431 41.624 126.577 41.6389 126.726 41.6688C126.883 41.6987 127.032 41.7584 127.174 41.848C127.324 41.9301 127.458 42.0421 127.577 42.184C127.704 42.3259 127.813 42.5088 127.902 42.7328C128.081 42.3744 128.324 42.1019 128.63 41.9152C128.944 41.7211 129.313 41.624 129.739 41.624C130.404 41.624 130.9 41.8219 131.229 42.2176C131.565 42.6133 131.733 43.136 131.733 43.7856V47H130.971V44.0992C130.971 43.5467 130.867 43.1024 130.657 42.7664C130.456 42.4304 130.109 42.2624 129.616 42.2624C129.34 42.2624 129.104 42.3184 128.91 42.4304C128.724 42.5424 128.571 42.6917 128.451 42.8784C128.339 43.0576 128.257 43.2629 128.205 43.4944C128.152 43.7259 128.126 43.9648 128.126 44.2112V47H127.365V43.9424C127.365 43.6885 127.346 43.4571 127.309 43.248C127.271 43.0389 127.204 42.8635 127.107 42.7216C127.017 42.5723 126.891 42.4603 126.726 42.3856C126.562 42.3035 126.353 42.2624 126.099 42.2624C125.92 42.2624 125.737 42.3035 125.55 42.3856C125.371 42.4677 125.207 42.5947 125.057 42.7664C124.916 42.9307 124.8 43.1435 124.71 43.4048C124.621 43.6587 124.576 43.9611 124.576 44.312V47H123.814V42.912C123.814 42.7701 123.811 42.5872 123.803 42.3632C123.796 42.1392 123.784 41.9376 123.769 41.7584H124.497C124.512 41.9003 124.524 42.0571 124.531 42.2288C124.539 42.4005 124.542 42.5424 124.542 42.6544H124.565ZM137.006 43.6176C137.006 43.1621 136.886 42.8224 136.647 42.5984C136.408 42.3744 136.061 42.2624 135.606 42.2624C135.292 42.2624 135.001 42.3184 134.732 42.4304C134.463 42.5424 134.236 42.6917 134.049 42.8784L133.623 42.3744C133.84 42.1579 134.124 41.9787 134.475 41.8368C134.833 41.6949 135.236 41.624 135.684 41.624C135.968 41.624 136.233 41.6651 136.479 41.7472C136.726 41.8219 136.942 41.9376 137.129 42.0944C137.316 42.2512 137.461 42.4491 137.566 42.688C137.67 42.9269 137.723 43.2069 137.723 43.528V45.824C137.723 46.0256 137.73 46.2347 137.745 46.4512C137.76 46.6677 137.782 46.8507 137.812 47H137.129C137.107 46.8731 137.088 46.7349 137.073 46.5856C137.058 46.4363 137.051 46.2907 137.051 46.1488H137.028C136.789 46.4997 136.517 46.7536 136.211 46.9104C135.912 47.0597 135.55 47.1344 135.124 47.1344C134.923 47.1344 134.713 47.1045 134.497 47.0448C134.288 46.9925 134.094 46.9029 133.915 46.776C133.743 46.6491 133.597 46.4848 133.478 46.2832C133.366 46.0816 133.31 45.8352 133.31 45.544C133.31 45.1408 133.411 44.8235 133.612 44.592C133.821 44.3531 134.097 44.1776 134.441 44.0656C134.784 43.9461 135.176 43.8715 135.617 43.8416C136.065 43.8043 136.528 43.7856 137.006 43.7856V43.6176ZM136.782 44.3792C136.468 44.3792 136.151 44.3941 135.83 44.424C135.516 44.4464 135.229 44.4987 134.967 44.5808C134.713 44.6555 134.504 44.7675 134.34 44.9168C134.176 45.0661 134.094 45.264 134.094 45.5104C134.094 45.6971 134.127 45.8539 134.195 45.9808C134.269 46.1077 134.366 46.2123 134.486 46.2944C134.605 46.3691 134.736 46.4251 134.878 46.4624C135.027 46.4923 135.176 46.5072 135.326 46.5072C135.595 46.5072 135.833 46.4624 136.043 46.3728C136.252 46.2757 136.427 46.1488 136.569 45.992C136.711 45.8277 136.819 45.6411 136.894 45.432C136.968 45.2229 137.006 45.0027 137.006 44.7712V44.3792H136.782ZM140.435 42.6544C140.584 42.3483 140.812 42.1019 141.118 41.9152C141.432 41.7211 141.779 41.624 142.16 41.624C142.302 41.624 142.447 41.6389 142.597 41.6688C142.753 41.6987 142.903 41.7584 143.045 41.848C143.194 41.9301 143.328 42.0421 143.448 42.184C143.575 42.3259 143.683 42.5088 143.773 42.7328C143.952 42.3744 144.194 42.1019 144.501 41.9152C144.814 41.7211 145.184 41.624 145.609 41.624C146.274 41.624 146.77 41.8219 147.099 42.2176C147.435 42.6133 147.603 43.136 147.603 43.7856V47H146.841V44.0992C146.841 43.5467 146.737 43.1024 146.528 42.7664C146.326 42.4304 145.979 42.2624 145.486 42.2624C145.21 42.2624 144.975 42.3184 144.781 42.4304C144.594 42.5424 144.441 42.6917 144.321 42.8784C144.209 43.0576 144.127 43.2629 144.075 43.4944C144.023 43.7259 143.997 43.9648 143.997 44.2112V47H143.235V43.9424C143.235 43.6885 143.216 43.4571 143.179 43.248C143.142 43.0389 143.074 42.8635 142.977 42.7216C142.888 42.5723 142.761 42.4603 142.597 42.3856C142.432 42.3035 142.223 42.2624 141.969 42.2624C141.79 42.2624 141.607 42.3035 141.421 42.3856C141.241 42.4677 141.077 42.5947 140.928 42.7664C140.786 42.9307 140.67 43.1435 140.581 43.4048C140.491 43.6587 140.446 43.9611 140.446 44.312V47H139.685V42.912C139.685 42.7701 139.681 42.5872 139.673 42.3632C139.666 42.1392 139.655 41.9376 139.64 41.7584H140.368C140.383 41.9003 140.394 42.0571 140.401 42.2288C140.409 42.4005 140.413 42.5424 140.413 42.6544H140.435ZM153.57 43.976C153.548 43.4832 153.388 43.0763 153.089 42.7552C152.798 42.4267 152.38 42.2624 151.834 42.2624C151.581 42.2624 151.345 42.3109 151.129 42.408C150.912 42.4976 150.722 42.6245 150.558 42.7888C150.393 42.9456 150.263 43.1285 150.166 43.3376C150.069 43.5392 150.013 43.752 149.998 43.976H153.57ZM154.343 44.2224C154.343 44.2747 154.343 44.3307 154.343 44.3904C154.343 44.4501 154.34 44.5136 154.332 44.5808H149.986C149.994 44.8421 150.046 45.0885 150.143 45.32C150.24 45.5515 150.375 45.7531 150.546 45.9248C150.718 46.0965 150.92 46.2347 151.151 46.3392C151.383 46.4363 151.633 46.4848 151.902 46.4848C152.297 46.4848 152.637 46.3952 152.921 46.216C153.212 46.0293 153.432 45.8165 153.582 45.5776L154.153 46.0256C153.839 46.4213 153.492 46.7051 153.111 46.8768C152.738 47.0485 152.335 47.1344 151.902 47.1344C151.513 47.1344 151.151 47.0672 150.815 46.9328C150.487 46.7909 150.203 46.5968 149.964 46.3504C149.725 46.104 149.535 45.8128 149.393 45.4768C149.258 45.1408 149.191 44.7749 149.191 44.3792C149.191 43.9835 149.258 43.6176 149.393 43.2816C149.527 42.9456 149.714 42.6544 149.953 42.408C150.192 42.1616 150.472 41.9712 150.793 41.8368C151.114 41.6949 151.461 41.624 151.834 41.624C152.245 41.624 152.607 41.6949 152.921 41.8368C153.234 41.9712 153.496 42.1579 153.705 42.3968C153.914 42.6283 154.071 42.9008 154.175 43.2144C154.287 43.528 154.343 43.864 154.343 44.2224ZM156.665 41.7584C156.68 41.9003 156.691 42.0571 156.698 42.2288C156.706 42.4005 156.709 42.5424 156.709 42.6544H156.732C156.881 42.3483 157.124 42.1019 157.46 41.9152C157.796 41.7211 158.151 41.624 158.524 41.624C159.188 41.624 159.685 41.8219 160.013 42.2176C160.349 42.6133 160.517 43.136 160.517 43.7856V47H159.756V44.0992C159.756 43.8229 159.733 43.5728 159.689 43.3488C159.644 43.1248 159.565 42.9344 159.453 42.7776C159.349 42.6133 159.203 42.4864 159.017 42.3968C158.837 42.3072 158.61 42.2624 158.333 42.2624C158.132 42.2624 157.934 42.3035 157.74 42.3856C157.553 42.4677 157.385 42.5947 157.236 42.7664C157.087 42.9307 156.967 43.1435 156.877 43.4048C156.788 43.6587 156.743 43.9611 156.743 44.312V47H155.981V42.912C155.981 42.7701 155.978 42.5872 155.97 42.3632C155.963 42.1392 155.952 41.9376 155.937 41.7584H156.665ZM164.852 42.3968H163.374V45.4544C163.374 45.6485 163.393 45.8091 163.43 45.936C163.467 46.0629 163.52 46.1637 163.587 46.2384C163.662 46.3056 163.747 46.3541 163.844 46.384C163.942 46.4064 164.046 46.4176 164.158 46.4176C164.263 46.4176 164.371 46.4027 164.483 46.3728C164.602 46.3429 164.714 46.3019 164.819 46.2496L164.852 46.9104C164.718 46.9627 164.576 47 164.427 47.0224C164.285 47.0523 164.128 47.0672 163.956 47.0672C163.815 47.0672 163.665 47.0485 163.508 47.0112C163.352 46.9739 163.206 46.9029 163.072 46.7984C162.937 46.6939 162.825 46.552 162.736 46.3728C162.654 46.1936 162.612 45.9584 162.612 45.6672V42.3968H161.526V41.7584H162.612V40.28H163.374V41.7584H164.852V42.3968ZM170.042 43.976C170.02 43.4832 169.859 43.0763 169.561 42.7552C169.27 42.4267 168.851 42.2624 168.306 42.2624C168.052 42.2624 167.817 42.3109 167.601 42.408C167.384 42.4976 167.194 42.6245 167.03 42.7888C166.865 42.9456 166.735 43.1285 166.638 43.3376C166.54 43.5392 166.484 43.752 166.47 43.976H170.042ZM170.815 44.2224C170.815 44.2747 170.815 44.3307 170.815 44.3904C170.815 44.4501 170.811 44.5136 170.804 44.5808H166.458C166.466 44.8421 166.518 45.0885 166.615 45.32C166.712 45.5515 166.847 45.7531 167.018 45.9248C167.19 46.0965 167.392 46.2347 167.623 46.3392C167.855 46.4363 168.105 46.4848 168.374 46.4848C168.769 46.4848 169.109 46.3952 169.393 46.216C169.684 46.0293 169.904 45.8165 170.054 45.5776L170.625 46.0256C170.311 46.4213 169.964 46.7051 169.583 46.8768C169.21 47.0485 168.807 47.1344 168.374 47.1344C167.985 47.1344 167.623 47.0672 167.287 46.9328C166.959 46.7909 166.675 46.5968 166.436 46.3504C166.197 46.104 166.007 45.8128 165.865 45.4768C165.73 45.1408 165.663 44.7749 165.663 44.3792C165.663 43.9835 165.73 43.6176 165.865 43.2816C165.999 42.9456 166.186 42.6544 166.425 42.408C166.664 42.1616 166.944 41.9712 167.265 41.8368C167.586 41.6949 167.933 41.624 168.306 41.624C168.717 41.624 169.079 41.6949 169.393 41.8368C169.706 41.9712 169.968 42.1579 170.177 42.3968C170.386 42.6283 170.543 42.9008 170.647 43.2144C170.759 43.528 170.815 43.864 170.815 44.2224Z" fill="#686868"/>
<rect x="180" width="90" height="64" fill="black"/>
<path d="M221.5 14C217.646 14 214.5 17.1459 214.5 21C214.5 24.8541 217.646 28 221.5 28C223.248 28 224.845 27.348 226.074 26.2812L226.5 26.707V28L232.5 34L234.5 32L228.5 26H227.207L226.781 25.5742C227.848 24.345 228.5 22.748 228.5 21C228.5 17.1459 225.354 14 221.5 14ZM221.5 16C224.273 16 226.5 18.2267 226.5 21C226.5 23.7733 224.273 26 221.5 26C218.727 26 216.5 23.7733 216.5 21C216.5 18.2267 218.727 16 221.5 16Z" fill="#686868"/>
<path d="M208.053 39.0704H210.416C210.715 39.0704 211.017 39.104 211.323 39.1712C211.629 39.2309 211.902 39.3392 212.141 39.496C212.387 39.6453 212.585 39.8507 212.734 40.112C212.891 40.3733 212.97 40.7019 212.97 41.0976C212.97 41.5157 212.843 41.8816 212.589 42.1952C212.335 42.5013 211.995 42.7029 211.57 42.8V42.8224C212.085 42.8821 212.51 43.0837 212.846 43.4272C213.19 43.7632 213.362 44.2224 213.362 44.8048C213.362 45.1333 213.291 45.4357 213.149 45.712C213.014 45.9808 212.82 46.2123 212.566 46.4064C212.313 46.5931 212.003 46.7387 211.637 46.8432C211.271 46.9477 210.86 47 210.405 47H208.053V39.0704ZM208.859 42.5424H210.483C210.677 42.5424 210.871 42.52 211.066 42.4752C211.267 42.4304 211.45 42.3557 211.614 42.2512C211.779 42.1392 211.909 41.9936 212.006 41.8144C212.111 41.6352 212.163 41.4149 212.163 41.1536C212.163 40.8997 212.111 40.6869 212.006 40.5152C211.909 40.336 211.775 40.1904 211.603 40.0784C211.431 39.9664 211.23 39.888 210.998 39.8432C210.767 39.7909 210.521 39.7648 210.259 39.7648H208.859V42.5424ZM208.859 46.3056H210.36C210.651 46.3056 210.927 46.2795 211.189 46.2272C211.458 46.1675 211.689 46.0779 211.883 45.9584C212.085 45.8315 212.245 45.6709 212.365 45.4768C212.484 45.2752 212.544 45.0363 212.544 44.76C212.544 44.2373 212.365 43.8491 212.006 43.5952C211.655 43.3339 211.155 43.2032 210.506 43.2032H208.859V46.3056ZM218.936 47C218.921 46.8581 218.91 46.7013 218.903 46.5296C218.895 46.3579 218.892 46.216 218.892 46.104H218.869C218.72 46.4101 218.477 46.6603 218.141 46.8544C217.805 47.0411 217.45 47.1344 217.077 47.1344C216.413 47.1344 215.912 46.9365 215.576 46.5408C215.248 46.1451 215.084 45.6224 215.084 44.9728V41.7584H215.845V44.6592C215.845 44.9355 215.868 45.1856 215.912 45.4096C215.957 45.6336 216.032 45.8277 216.136 45.992C216.248 46.1488 216.394 46.272 216.573 46.3616C216.76 46.4512 216.991 46.496 217.268 46.496C217.469 46.496 217.663 46.4549 217.85 46.3728C218.044 46.2907 218.216 46.1675 218.365 46.0032C218.514 45.8315 218.634 45.6187 218.724 45.3648C218.813 45.1035 218.858 44.7973 218.858 44.4464V41.7584H219.62V45.8464C219.62 45.9883 219.623 46.1712 219.631 46.3952C219.638 46.6192 219.649 46.8208 219.664 47H218.936ZM224.425 43.0016C224.313 42.7851 224.141 42.6096 223.91 42.4752C223.686 42.3333 223.428 42.2624 223.137 42.2624C223.003 42.2624 222.868 42.2773 222.734 42.3072C222.599 42.3371 222.48 42.3856 222.375 42.4528C222.271 42.52 222.185 42.6059 222.118 42.7104C222.058 42.8149 222.028 42.9381 222.028 43.08C222.028 43.3264 222.129 43.5168 222.331 43.6512C222.532 43.7781 222.849 43.8864 223.283 43.976C223.902 44.1029 224.358 44.2896 224.649 44.536C224.948 44.7749 225.097 45.0997 225.097 45.5104C225.097 45.8091 225.037 46.0629 224.918 46.272C224.806 46.4736 224.656 46.6416 224.47 46.776C224.283 46.9029 224.07 46.9925 223.831 47.0448C223.6 47.1045 223.365 47.1344 223.126 47.1344C222.73 47.1344 222.345 47.0523 221.972 46.888C221.599 46.7237 221.293 46.4661 221.054 46.1152L221.659 45.6672C221.793 45.8987 221.991 46.0928 222.252 46.2496C222.513 46.4064 222.801 46.4848 223.115 46.4848C223.279 46.4848 223.436 46.4699 223.585 46.44C223.734 46.4101 223.865 46.3579 223.977 46.2832C224.089 46.2085 224.179 46.1152 224.246 46.0032C224.313 45.8837 224.347 45.7381 224.347 45.5664C224.347 45.2901 224.212 45.0848 223.943 44.9504C223.682 44.8085 223.301 44.6779 222.801 44.5584C222.644 44.5211 222.476 44.4763 222.297 44.424C222.125 44.3643 221.965 44.2821 221.815 44.1776C221.666 44.0656 221.543 43.9275 221.446 43.7632C221.349 43.5989 221.3 43.3936 221.3 43.1472C221.3 42.8784 221.352 42.6507 221.457 42.464C221.561 42.2699 221.7 42.1131 221.871 41.9936C222.051 41.8667 222.252 41.7733 222.476 41.7136C222.7 41.6539 222.932 41.624 223.171 41.624C223.536 41.624 223.891 41.7061 224.235 41.8704C224.578 42.0347 224.836 42.2661 225.007 42.5648L224.425 43.0016ZM230.387 42.9568C230.26 42.7552 230.073 42.5909 229.827 42.464C229.588 42.3296 229.327 42.2624 229.043 42.2624C228.737 42.2624 228.461 42.3184 228.214 42.4304C227.968 42.5349 227.755 42.6843 227.576 42.8784C227.404 43.0651 227.27 43.2891 227.173 43.5504C227.083 43.8043 227.038 44.0805 227.038 44.3792C227.038 44.6779 227.083 44.9541 227.173 45.208C227.27 45.4619 227.404 45.6859 227.576 45.88C227.748 46.0667 227.957 46.216 228.203 46.328C228.449 46.4325 228.726 46.4848 229.032 46.4848C229.368 46.4848 229.652 46.4213 229.883 46.2944C230.115 46.1675 230.305 46.0032 230.454 45.8016L231.025 46.2272C230.801 46.5035 230.525 46.7237 230.197 46.888C229.876 47.0523 229.487 47.1344 229.032 47.1344C228.606 47.1344 228.222 47.0672 227.878 46.9328C227.535 46.7909 227.24 46.5968 226.993 46.3504C226.755 46.104 226.568 45.8128 226.433 45.4768C226.299 45.1408 226.232 44.7749 226.232 44.3792C226.232 43.9835 226.299 43.6176 226.433 43.2816C226.568 42.9456 226.755 42.6544 226.993 42.408C227.24 42.1616 227.535 41.9712 227.878 41.8368C228.222 41.6949 228.606 41.624 229.032 41.624C229.383 41.624 229.737 41.7024 230.096 41.8592C230.462 42.0085 230.757 42.2325 230.981 42.5312L230.387 42.9568ZM235.517 43.6176C235.517 43.1621 235.397 42.8224 235.158 42.5984C234.919 42.3744 234.572 42.2624 234.117 42.2624C233.803 42.2624 233.512 42.3184 233.243 42.4304C232.974 42.5424 232.747 42.6917 232.56 42.8784L232.134 42.3744C232.351 42.1579 232.635 41.9787 232.985 41.8368C233.344 41.6949 233.747 41.624 234.195 41.624C234.479 41.624 234.744 41.6651 234.99 41.7472C235.237 41.8219 235.453 41.9376 235.64 42.0944C235.827 42.2512 235.972 42.4491 236.077 42.688C236.181 42.9269 236.233 43.2069 236.233 43.528V45.824C236.233 46.0256 236.241 46.2347 236.256 46.4512C236.271 46.6677 236.293 46.8507 236.323 47H235.64C235.617 46.8731 235.599 46.7349 235.584 46.5856C235.569 46.4363 235.561 46.2907 235.561 46.1488H235.539C235.3 46.4997 235.028 46.7536 234.721 46.9104C234.423 47.0597 234.061 47.1344 233.635 47.1344C233.433 47.1344 233.224 47.1045 233.008 47.0448C232.799 46.9925 232.605 46.9029 232.425 46.776C232.254 46.6491 232.108 46.4848 231.989 46.2832C231.877 46.0816 231.821 45.8352 231.821 45.544C231.821 45.1408 231.921 44.8235 232.123 44.592C232.332 44.3531 232.608 44.1776 232.952 44.0656C233.295 43.9461 233.687 43.8715 234.128 43.8416C234.576 43.8043 235.039 43.7856 235.517 43.7856V43.6176ZM235.293 44.3792C234.979 44.3792 234.662 44.3941 234.341 44.424C234.027 44.4464 233.74 44.4987 233.478 44.5808C233.224 44.6555 233.015 44.7675 232.851 44.9168C232.687 45.0661 232.605 45.264 232.605 45.5104C232.605 45.6971 232.638 45.8539 232.705 45.9808C232.78 46.1077 232.877 46.2123 232.997 46.2944C233.116 46.3691 233.247 46.4251 233.389 46.4624C233.538 46.4923 233.687 46.5072 233.837 46.5072C234.105 46.5072 234.344 46.4624 234.553 46.3728C234.763 46.2757 234.938 46.1488 235.08 45.992C235.222 45.8277 235.33 45.6411 235.405 45.432C235.479 45.2229 235.517 45.0027 235.517 44.7712V44.3792H235.293ZM238.196 42.912C238.196 42.7701 238.192 42.5872 238.184 42.3632C238.177 42.1392 238.166 41.9376 238.151 41.7584H238.879C238.894 41.9003 238.905 42.0571 238.912 42.2288C238.92 42.4005 238.923 42.5424 238.923 42.6544H238.946C239.095 42.3483 239.319 42.1019 239.618 41.9152C239.917 41.7211 240.253 41.624 240.626 41.624C240.723 41.624 240.809 41.6277 240.884 41.6352C240.966 41.6427 241.048 41.6576 241.13 41.68L241.029 42.3968C240.984 42.3819 240.91 42.3669 240.805 42.352C240.701 42.3371 240.596 42.3296 240.492 42.3296C240.29 42.3296 240.096 42.3669 239.909 42.4416C239.722 42.5163 239.558 42.6357 239.416 42.8C239.282 42.9568 239.17 43.1621 239.08 43.416C238.998 43.6624 238.957 43.9611 238.957 44.312V47H238.196V42.912Z" fill="#686868"/>
<rect x="270" width="90" height="64" fill="black"/>
<path d="M315 14C309.489 14 305 18.489 305 24C305 29.511 309.489 34 315 34C320.511 34 325 29.511 325 24C325 18.489 320.511 14 315 14ZM315 16C319.43 16 323 19.5699 323 24C323 28.4301 319.43 32 315 32C310.57 32 307 28.4301 307 24C307 19.5699 310.57 16 315 16ZM314 19V25H311L315 29L319 25H316V19H314Z" fill="#686868"/>
<path d="M289.053 39.0704H291.685C292.178 39.0704 292.67 39.1525 293.163 39.3168C293.663 39.4811 294.111 39.7312 294.507 40.0672C294.91 40.3957 295.235 40.8101 295.482 41.3104C295.728 41.8032 295.851 42.3781 295.851 43.0352C295.851 43.6997 295.728 44.2784 295.482 44.7712C295.235 45.264 294.91 45.6784 294.507 46.0144C294.111 46.3429 293.663 46.5893 293.163 46.7536C292.67 46.9179 292.178 47 291.685 47H289.053V39.0704ZM289.859 46.2832H291.461C292.058 46.2832 292.577 46.1899 293.018 46.0032C293.466 45.8165 293.835 45.5739 294.126 45.2752C294.418 44.9691 294.634 44.6219 294.776 44.2336C294.925 43.8453 295 43.4459 295 43.0352C295 42.6245 294.925 42.2251 294.776 41.8368C294.634 41.4485 294.418 41.1051 294.126 40.8064C293.835 40.5003 293.466 40.2539 293.018 40.0672C292.577 39.8805 292.058 39.7872 291.461 39.7872H289.859V46.2832ZM301.483 43.976C301.461 43.4832 301.3 43.0763 301.001 42.7552C300.71 42.4267 300.292 42.2624 299.747 42.2624C299.493 42.2624 299.258 42.3109 299.041 42.408C298.825 42.4976 298.634 42.6245 298.47 42.7888C298.306 42.9456 298.175 43.1285 298.078 43.3376C297.981 43.5392 297.925 43.752 297.91 43.976H301.483ZM302.256 44.2224C302.256 44.2747 302.256 44.3307 302.256 44.3904C302.256 44.4501 302.252 44.5136 302.245 44.5808H297.899C297.906 44.8421 297.959 45.0885 298.056 45.32C298.153 45.5515 298.287 45.7531 298.459 45.9248C298.631 46.0965 298.832 46.2347 299.064 46.3392C299.295 46.4363 299.545 46.4848 299.814 46.4848C300.21 46.4848 300.55 46.3952 300.833 46.216C301.125 46.0293 301.345 45.8165 301.494 45.5776L302.065 46.0256C301.752 46.4213 301.405 46.7051 301.024 46.8768C300.65 47.0485 300.247 47.1344 299.814 47.1344C299.426 47.1344 299.064 47.0672 298.728 46.9328C298.399 46.7909 298.115 46.5968 297.877 46.3504C297.638 46.104 297.447 45.8128 297.305 45.4768C297.171 45.1408 297.104 44.7749 297.104 44.3792C297.104 43.9835 297.171 43.6176 297.305 43.2816C297.44 42.9456 297.626 42.6544 297.865 42.408C298.104 42.1616 298.384 41.9712 298.705 41.8368C299.026 41.6949 299.374 41.624 299.747 41.624C300.158 41.624 300.52 41.6949 300.833 41.8368C301.147 41.9712 301.408 42.1579 301.617 42.3968C301.826 42.6283 301.983 42.9008 302.088 43.2144C302.2 43.528 302.256 43.864 302.256 44.2224ZM306.683 43.0016C306.571 42.7851 306.399 42.6096 306.168 42.4752C305.944 42.3333 305.686 42.2624 305.395 42.2624C305.26 42.2624 305.126 42.2773 304.992 42.3072C304.857 42.3371 304.738 42.3856 304.633 42.4528C304.529 42.52 304.443 42.6059 304.376 42.7104C304.316 42.8149 304.286 42.9381 304.286 43.08C304.286 43.3264 304.387 43.5168 304.588 43.6512C304.79 43.7781 305.107 43.8864 305.54 43.976C306.16 44.1029 306.616 44.2896 306.907 44.536C307.205 44.7749 307.355 45.0997 307.355 45.5104C307.355 45.8091 307.295 46.0629 307.176 46.272C307.064 46.4736 306.914 46.6416 306.728 46.776C306.541 46.9029 306.328 46.9925 306.089 47.0448C305.858 47.1045 305.622 47.1344 305.384 47.1344C304.988 47.1344 304.603 47.0523 304.23 46.888C303.857 46.7237 303.55 46.4661 303.312 46.1152L303.916 45.6672C304.051 45.8987 304.249 46.0928 304.51 46.2496C304.771 46.4064 305.059 46.4848 305.372 46.4848C305.537 46.4848 305.693 46.4699 305.843 46.44C305.992 46.4101 306.123 46.3579 306.235 46.2832C306.347 46.2085 306.436 46.1152 306.504 46.0032C306.571 45.8837 306.604 45.7381 306.604 45.5664C306.604 45.2901 306.47 45.0848 306.201 44.9504C305.94 44.8085 305.559 44.6779 305.059 44.5584C304.902 44.5211 304.734 44.4763 304.555 44.424C304.383 44.3643 304.222 44.2821 304.073 44.1776C303.924 44.0656 303.801 43.9275 303.704 43.7632C303.606 43.5989 303.558 43.3936 303.558 43.1472C303.558 42.8784 303.61 42.6507 303.715 42.464C303.819 42.2699 303.957 42.1131 304.129 41.9936C304.308 41.8667 304.51 41.7733 304.734 41.7136C304.958 41.6539 305.189 41.624 305.428 41.624C305.794 41.624 306.149 41.7061 306.492 41.8704C306.836 42.0347 307.093 42.2661 307.265 42.5648L306.683 43.0016ZM312.645 42.9568C312.518 42.7552 312.331 42.5909 312.085 42.464C311.846 42.3296 311.585 42.2624 311.301 42.2624C310.995 42.2624 310.718 42.3184 310.472 42.4304C310.226 42.5349 310.013 42.6843 309.834 42.8784C309.662 43.0651 309.528 43.2891 309.43 43.5504C309.341 43.8043 309.296 44.0805 309.296 44.3792C309.296 44.6779 309.341 44.9541 309.43 45.208C309.528 45.4619 309.662 45.6859 309.834 45.88C310.005 46.0667 310.214 46.216 310.461 46.328C310.707 46.4325 310.984 46.4848 311.29 46.4848C311.626 46.4848 311.909 46.4213 312.141 46.2944C312.372 46.1675 312.563 46.0032 312.712 45.8016L313.283 46.2272C313.059 46.5035 312.783 46.7237 312.454 46.888C312.133 47.0523 311.745 47.1344 311.29 47.1344C310.864 47.1344 310.48 47.0672 310.136 46.9328C309.793 46.7909 309.498 46.5968 309.251 46.3504C309.012 46.104 308.826 45.8128 308.691 45.4768C308.557 45.1408 308.49 44.7749 308.49 44.3792C308.49 43.9835 308.557 43.6176 308.691 43.2816C308.826 42.9456 309.012 42.6544 309.251 42.408C309.498 42.1616 309.793 41.9712 310.136 41.8368C310.48 41.6949 310.864 41.624 311.29 41.624C311.641 41.624 311.995 41.7024 312.354 41.8592C312.72 42.0085 313.014 42.2325 313.238 42.5312L312.645 42.9568ZM317.774 43.6176C317.774 43.1621 317.655 42.8224 317.416 42.5984C317.177 42.3744 316.83 42.2624 316.374 42.2624C316.061 42.2624 315.77 42.3184 315.501 42.4304C315.232 42.5424 315.004 42.6917 314.818 42.8784L314.392 42.3744C314.609 42.1579 314.892 41.9787 315.243 41.8368C315.602 41.6949 316.005 41.624 316.453 41.624C316.737 41.624 317.002 41.6651 317.248 41.7472C317.494 41.8219 317.711 41.9376 317.898 42.0944C318.084 42.2512 318.23 42.4491 318.334 42.688C318.439 42.9269 318.491 43.2069 318.491 43.528V45.824C318.491 46.0256 318.499 46.2347 318.514 46.4512C318.529 46.6677 318.551 46.8507 318.581 47H317.898C317.875 46.8731 317.857 46.7349 317.842 46.5856C317.827 46.4363 317.819 46.2907 317.819 46.1488H317.797C317.558 46.4997 317.285 46.7536 316.979 46.9104C316.681 47.0597 316.318 47.1344 315.893 47.1344C315.691 47.1344 315.482 47.1045 315.266 47.0448C315.057 46.9925 314.862 46.9029 314.683 46.776C314.512 46.6491 314.366 46.4848 314.246 46.2832C314.134 46.0816 314.078 45.8352 314.078 45.544C314.078 45.1408 314.179 44.8235 314.381 44.592C314.59 44.3531 314.866 44.1776 315.21 44.0656C315.553 43.9461 315.945 43.8715 316.386 43.8416C316.834 43.8043 317.297 43.7856 317.774 43.7856V43.6176ZM317.55 44.3792C317.237 44.3792 316.92 44.3941 316.598 44.424C316.285 44.4464 315.997 44.4987 315.736 44.5808C315.482 44.6555 315.273 44.7675 315.109 44.9168C314.945 45.0661 314.862 45.264 314.862 45.5104C314.862 45.6971 314.896 45.8539 314.963 45.9808C315.038 46.1077 315.135 46.2123 315.254 46.2944C315.374 46.3691 315.505 46.4251 315.646 46.4624C315.796 46.4923 315.945 46.5072 316.094 46.5072C316.363 46.5072 316.602 46.4624 316.811 46.3728C317.02 46.2757 317.196 46.1488 317.338 45.992C317.48 45.8277 317.588 45.6411 317.662 45.432C317.737 45.2229 317.774 45.0027 317.774 44.7712V44.3792H317.55ZM320.453 42.912C320.453 42.7701 320.45 42.5872 320.442 42.3632C320.435 42.1392 320.423 41.9376 320.409 41.7584H321.137C321.151 41.9003 321.163 42.0571 321.17 42.2288C321.178 42.4005 321.181 42.5424 321.181 42.6544H321.204C321.353 42.3483 321.577 42.1019 321.876 41.9152C322.174 41.7211 322.51 41.624 322.884 41.624C322.981 41.624 323.067 41.6277 323.141 41.6352C323.223 41.6427 323.306 41.6576 323.388 41.68L323.287 42.3968C323.242 42.3819 323.167 42.3669 323.063 42.352C322.958 42.3371 322.854 42.3296 322.749 42.3296C322.548 42.3296 322.354 42.3669 322.167 42.4416C321.98 42.5163 321.816 42.6357 321.674 42.8C321.54 42.9568 321.428 43.1621 321.338 43.416C321.256 43.6624 321.215 43.9611 321.215 44.312V47H320.453V42.912ZM324.572 48.0528C324.781 48.3216 325.065 48.5493 325.424 48.736C325.789 48.9227 326.174 49.016 326.577 49.016C326.951 49.016 327.268 48.96 327.529 48.848C327.791 48.7435 328 48.5979 328.156 48.4112C328.321 48.2245 328.44 48.0043 328.515 47.7504C328.589 47.504 328.627 47.2389 328.627 46.9552V45.9696H328.604C328.403 46.2981 328.115 46.552 327.742 46.7312C327.376 46.9104 327.003 47 326.622 47C326.211 47 325.838 46.9328 325.502 46.7984C325.173 46.664 324.89 46.4811 324.651 46.2496C324.419 46.0107 324.236 45.7269 324.102 45.3984C323.975 45.0699 323.912 44.7152 323.912 44.3344C323.912 43.9611 323.975 43.6101 324.102 43.2816C324.236 42.9531 324.419 42.6656 324.651 42.4192C324.89 42.1728 325.173 41.9787 325.502 41.8368C325.838 41.6949 326.211 41.624 326.622 41.624C327.003 41.624 327.376 41.7136 327.742 41.8928C328.108 42.072 328.395 42.3296 328.604 42.6656H328.627V41.7584H329.388V46.9552C329.388 47.2389 329.347 47.5413 329.265 47.8624C329.191 48.1835 329.045 48.4784 328.828 48.7472C328.619 49.016 328.332 49.24 327.966 49.4192C327.6 49.5984 327.126 49.688 326.544 49.688C326.058 49.688 325.595 49.5947 325.155 49.408C324.714 49.2213 324.337 48.9637 324.024 48.6352L324.572 48.0528ZM324.718 44.312C324.718 44.5883 324.763 44.8496 324.852 45.096C324.942 45.3424 325.069 45.5589 325.233 45.7456C325.405 45.9323 325.614 46.0816 325.86 46.1936C326.107 46.2981 326.387 46.3504 326.7 46.3504C326.992 46.3504 327.26 46.3019 327.507 46.2048C327.753 46.1077 327.966 45.9696 328.145 45.7904C328.324 45.6112 328.463 45.3984 328.56 45.152C328.664 44.8981 328.716 44.6181 328.716 44.312C328.716 44.0357 328.664 43.7744 328.56 43.528C328.463 43.2816 328.324 43.0651 328.145 42.8784C327.966 42.6917 327.753 42.5424 327.507 42.4304C327.26 42.3184 326.992 42.2624 326.7 42.2624C326.387 42.2624 326.107 42.3184 325.86 42.4304C325.614 42.5424 325.405 42.6917 325.233 42.8784C325.069 43.0651 324.942 43.2816 324.852 43.528C324.763 43.7744 324.718 44.0357 324.718 44.312ZM334.673 43.6176C334.673 43.1621 334.553 42.8224 334.315 42.5984C334.076 42.3744 333.728 42.2624 333.273 42.2624C332.959 42.2624 332.668 42.3184 332.399 42.4304C332.131 42.5424 331.903 42.6917 331.716 42.8784L331.291 42.3744C331.507 42.1579 331.791 41.9787 332.142 41.8368C332.5 41.6949 332.903 41.624 333.351 41.624C333.635 41.624 333.9 41.6651 334.147 41.7472C334.393 41.8219 334.609 41.9376 334.796 42.0944C334.983 42.2512 335.128 42.4491 335.233 42.688C335.337 42.9269 335.39 43.2069 335.39 43.528V45.824C335.39 46.0256 335.397 46.2347 335.412 46.4512C335.427 46.6677 335.449 46.8507 335.479 47H334.796C334.774 46.8731 334.755 46.7349 334.74 46.5856C334.725 46.4363 334.718 46.2907 334.718 46.1488H334.695C334.456 46.4997 334.184 46.7536 333.878 46.9104C333.579 47.0597 333.217 47.1344 332.791 47.1344C332.59 47.1344 332.381 47.1045 332.164 47.0448C331.955 46.9925 331.761 46.9029 331.582 46.776C331.41 46.6491 331.264 46.4848 331.145 46.2832C331.033 46.0816 330.977 45.8352 330.977 45.544C330.977 45.1408 331.078 44.8235 331.279 44.592C331.488 44.3531 331.765 44.1776 332.108 44.0656C332.452 43.9461 332.844 43.8715 333.284 43.8416C333.732 43.8043 334.195 43.7856 334.673 43.7856V43.6176ZM334.449 44.3792C334.135 44.3792 333.818 44.3941 333.497 44.424C333.183 44.4464 332.896 44.4987 332.635 44.5808C332.381 44.6555 332.172 44.7675 332.007 44.9168C331.843 45.0661 331.761 45.264 331.761 45.5104C331.761 45.6971 331.795 45.8539 331.862 45.9808C331.936 46.1077 332.033 46.2123 332.153 46.2944C332.272 46.3691 332.403 46.4251 332.545 46.4624C332.694 46.4923 332.844 46.5072 332.993 46.5072C333.262 46.5072 333.501 46.4624 333.71 46.3728C333.919 46.2757 334.094 46.1488 334.236 45.992C334.378 45.8277 334.486 45.6411 334.561 45.432C334.636 45.2229 334.673 45.0027 334.673 44.7712V44.3792H334.449ZM340.141 43.0016C340.029 42.7851 339.857 42.6096 339.625 42.4752C339.401 42.3333 339.144 42.2624 338.853 42.2624C338.718 42.2624 338.584 42.2773 338.449 42.3072C338.315 42.3371 338.195 42.3856 338.091 42.4528C337.986 42.52 337.901 42.6059 337.833 42.7104C337.774 42.8149 337.744 42.9381 337.744 43.08C337.744 43.3264 337.845 43.5168 338.046 43.6512C338.248 43.7781 338.565 43.8864 338.998 43.976C339.618 44.1029 340.073 44.2896 340.365 44.536C340.663 44.7749 340.813 45.0997 340.813 45.5104C340.813 45.8091 340.753 46.0629 340.633 46.272C340.521 46.4736 340.372 46.6416 340.185 46.776C339.999 46.9029 339.786 46.9925 339.547 47.0448C339.315 47.1045 339.08 47.1344 338.841 47.1344C338.446 47.1344 338.061 47.0523 337.688 46.888C337.314 46.7237 337.008 46.4661 336.769 46.1152L337.374 45.6672C337.509 45.8987 337.706 46.0928 337.968 46.2496C338.229 46.4064 338.517 46.4848 338.83 46.4848C338.994 46.4848 339.151 46.4699 339.301 46.44C339.45 46.4101 339.581 46.3579 339.693 46.2832C339.805 46.2085 339.894 46.1152 339.961 46.0032C340.029 45.8837 340.062 45.7381 340.062 45.5664C340.062 45.2901 339.928 45.0848 339.659 44.9504C339.398 44.8085 339.017 44.6779 338.517 44.5584C338.36 44.5211 338.192 44.4763 338.013 44.424C337.841 44.3643 337.68 44.2821 337.531 44.1776C337.382 44.0656 337.258 43.9275 337.161 43.7632C337.064 43.5989 337.016 43.3936 337.016 43.1472C337.016 42.8784 337.068 42.6507 337.173 42.464C337.277 42.2699 337.415 42.1131 337.587 41.9936C337.766 41.8667 337.968 41.7733 338.192 41.7136C338.416 41.6539 338.647 41.624 338.886 41.624C339.252 41.624 339.607 41.7061 339.95 41.8704C340.294 42.0347 340.551 42.2661 340.723 42.5648L340.141 43.0016Z" fill="#686868"/>
<defs>
<clipPath id="clip0_7_216">
<rect width="24" height="24" fill="white" transform="translate(123 12)"/>
</clipPath>
</defs>
</svg>
