<svg width="328" height="32" viewBox="0 0 328 32" fill="none" xmlns="http://www.w3.org/2000/svg">
<path d="M0 2C0 0.895431 0.89543 0 2 0H326C327.105 0 328 0.895431 328 2V30C328 31.1046 327.105 32 326 32H2C0.895429 32 0 31.1046 0 30V2Z" fill="#2B2B2B"/>
<path d="M128 6C127.448 6 127 6.448 127 7V15H123L129 21L135 15H131V7C131 6.448 130.552 6 130 6H128ZM119 24V26H139V24H119Z" fill="white"/>
<path d="M146.102 10.088H149.616C150.26 10.088 150.908 10.172 151.562 10.34C152.215 10.508 152.803 10.788 153.326 11.18C153.848 11.5627 154.273 12.0713 154.6 12.706C154.926 13.3313 155.09 14.1107 155.09 15.044C155.09 15.912 154.926 16.6587 154.6 17.284C154.273 17.9093 153.848 18.4227 153.326 18.824C152.803 19.2253 152.215 19.524 151.562 19.72C150.908 19.9067 150.26 20 149.616 20H146.102V10.088ZM149.336 18.46C149.793 18.46 150.25 18.4087 150.708 18.306C151.165 18.194 151.576 18.012 151.94 17.76C152.313 17.4987 152.616 17.1487 152.85 16.71C153.083 16.2713 153.2 15.716 153.2 15.044C153.2 14.3347 153.083 13.756 152.85 13.308C152.616 12.86 152.313 12.51 151.94 12.258C151.576 12.006 151.165 11.8333 150.708 11.74C150.25 11.6467 149.793 11.6 149.336 11.6H147.866V18.46H149.336ZM161.441 15.968C161.441 15.7533 161.409 15.548 161.343 15.352C161.287 15.156 161.194 14.9833 161.063 14.834C160.933 14.6847 160.765 14.568 160.559 14.484C160.363 14.3907 160.13 14.344 159.859 14.344C159.355 14.344 158.926 14.498 158.571 14.806C158.226 15.1047 158.035 15.492 157.997 15.968H161.441ZM163.121 16.724C163.121 16.7987 163.121 16.8733 163.121 16.948C163.121 17.0227 163.117 17.0973 163.107 17.172H157.997C158.016 17.4147 158.077 17.6387 158.179 17.844C158.291 18.04 158.436 18.2127 158.613 18.362C158.791 18.502 158.991 18.614 159.215 18.698C159.439 18.782 159.673 18.824 159.915 18.824C160.335 18.824 160.69 18.7493 160.979 18.6C161.269 18.4413 161.507 18.2267 161.693 17.956L162.813 18.852C162.151 19.748 161.189 20.196 159.929 20.196C159.407 20.196 158.926 20.1167 158.487 19.958C158.049 19.79 157.666 19.5567 157.339 19.258C157.022 18.9593 156.77 18.5953 156.583 18.166C156.406 17.7273 156.317 17.2327 156.317 16.682C156.317 16.1407 156.406 15.6507 156.583 15.212C156.77 14.764 157.022 14.386 157.339 14.078C157.657 13.7607 158.03 13.518 158.459 13.35C158.898 13.1727 159.369 13.084 159.873 13.084C160.34 13.084 160.769 13.1633 161.161 13.322C161.563 13.4713 161.908 13.7 162.197 14.008C162.487 14.3067 162.711 14.6847 162.869 15.142C163.037 15.59 163.121 16.1173 163.121 16.724ZM168.43 15.072C168.281 14.876 168.076 14.708 167.814 14.568C167.553 14.4187 167.268 14.344 166.96 14.344C166.69 14.344 166.442 14.4 166.218 14.512C165.994 14.624 165.882 14.8107 165.882 15.072C165.882 15.3333 166.004 15.52 166.246 15.632C166.498 15.7347 166.862 15.842 167.338 15.954C167.59 16.01 167.842 16.0847 168.094 16.178C168.356 16.2713 168.589 16.3973 168.794 16.556C169.009 16.7053 169.182 16.8967 169.312 17.13C169.443 17.354 169.508 17.6293 169.508 17.956C169.508 18.3667 169.429 18.7167 169.27 19.006C169.121 19.286 168.916 19.5147 168.654 19.692C168.402 19.8693 168.104 19.9953 167.758 20.07C167.422 20.154 167.072 20.196 166.708 20.196C166.186 20.196 165.677 20.1027 165.182 19.916C164.688 19.72 164.277 19.4447 163.95 19.09L165.056 18.054C165.243 18.2967 165.486 18.4973 165.784 18.656C166.083 18.8147 166.414 18.894 166.778 18.894C166.9 18.894 167.021 18.88 167.142 18.852C167.273 18.824 167.39 18.782 167.492 18.726C167.604 18.6607 167.693 18.5767 167.758 18.474C167.824 18.3713 167.856 18.2453 167.856 18.096C167.856 17.816 167.726 17.6153 167.464 17.494C167.212 17.3727 166.83 17.2513 166.316 17.13C166.064 17.074 165.817 17.004 165.574 16.92C165.341 16.8267 165.131 16.71 164.944 16.57C164.758 16.4207 164.608 16.2387 164.496 16.024C164.384 15.8093 164.328 15.5433 164.328 15.226C164.328 14.8527 164.403 14.5307 164.552 14.26C164.711 13.9893 164.916 13.77 165.168 13.602C165.42 13.4247 165.705 13.294 166.022 13.21C166.34 13.126 166.666 13.084 167.002 13.084C167.488 13.084 167.959 13.168 168.416 13.336C168.883 13.504 169.252 13.7607 169.522 14.106L168.43 15.072ZM175.561 15.142C175.43 14.9553 175.234 14.8013 174.973 14.68C174.712 14.5493 174.446 14.484 174.175 14.484C173.867 14.484 173.596 14.5493 173.363 14.68C173.13 14.8013 172.934 14.9647 172.775 15.17C172.626 15.3753 172.514 15.6087 172.439 15.87C172.364 16.122 172.327 16.3787 172.327 16.64C172.327 16.9013 172.364 17.1627 172.439 17.424C172.523 17.676 172.644 17.9047 172.803 18.11C172.962 18.3153 173.158 18.4833 173.391 18.614C173.634 18.7353 173.914 18.796 174.231 18.796C174.492 18.796 174.754 18.7447 175.015 18.642C175.276 18.5393 175.486 18.39 175.645 18.194L176.695 19.258C176.415 19.5567 176.056 19.79 175.617 19.958C175.188 20.1167 174.721 20.196 174.217 20.196C173.722 20.196 173.251 20.1167 172.803 19.958C172.364 19.7993 171.977 19.566 171.641 19.258C171.314 18.95 171.053 18.5767 170.857 18.138C170.67 17.6993 170.577 17.2 170.577 16.64C170.577 16.0987 170.67 15.6087 170.857 15.17C171.053 14.7313 171.314 14.358 171.641 14.05C171.968 13.742 172.346 13.504 172.775 13.336C173.214 13.168 173.68 13.084 174.175 13.084C174.67 13.084 175.146 13.1773 175.603 13.364C176.07 13.5507 176.438 13.8073 176.709 14.134L175.561 15.142ZM181.977 19.146H181.935C181.767 19.4447 181.496 19.692 181.123 19.888C180.75 20.0747 180.325 20.168 179.849 20.168C179.578 20.168 179.294 20.1307 178.995 20.056C178.706 19.9907 178.435 19.8787 178.183 19.72C177.94 19.552 177.735 19.3373 177.567 19.076C177.408 18.8053 177.329 18.474 177.329 18.082C177.329 17.578 177.469 17.1767 177.749 16.878C178.038 16.5793 178.407 16.3507 178.855 16.192C179.303 16.0333 179.798 15.9307 180.339 15.884C180.89 15.828 181.426 15.8 181.949 15.8V15.632C181.949 15.212 181.795 14.904 181.487 14.708C181.188 14.5027 180.829 14.4 180.409 14.4C180.054 14.4 179.714 14.4747 179.387 14.624C179.06 14.7733 178.79 14.9553 178.575 15.17L177.707 14.148C178.09 13.7933 178.528 13.5273 179.023 13.35C179.527 13.1727 180.036 13.084 180.549 13.084C181.146 13.084 181.636 13.168 182.019 13.336C182.411 13.504 182.719 13.7233 182.943 13.994C183.167 14.2647 183.321 14.568 183.405 14.904C183.498 15.24 183.545 15.576 183.545 15.912V20H181.977V19.146ZM181.949 16.934H181.571C181.3 16.934 181.016 16.948 180.717 16.976C180.418 16.9947 180.143 17.046 179.891 17.13C179.639 17.2047 179.429 17.3167 179.261 17.466C179.093 17.606 179.009 17.802 179.009 18.054C179.009 18.2127 179.042 18.348 179.107 18.46C179.182 18.5627 179.275 18.6467 179.387 18.712C179.499 18.7773 179.625 18.824 179.765 18.852C179.905 18.88 180.045 18.894 180.185 18.894C180.764 18.894 181.202 18.74 181.501 18.432C181.8 18.124 181.949 17.704 181.949 17.172V16.934ZM185.502 13.28H187.112V14.4H187.14C187.327 14.008 187.588 13.6907 187.924 13.448C188.26 13.2053 188.652 13.084 189.1 13.084C189.165 13.084 189.235 13.0887 189.31 13.098C189.385 13.098 189.45 13.1073 189.506 13.126V14.666C189.394 14.638 189.296 14.6193 189.212 14.61C189.137 14.6007 189.063 14.596 188.988 14.596C188.605 14.596 188.297 14.666 188.064 14.806C187.831 14.946 187.649 15.114 187.518 15.31C187.387 15.506 187.299 15.7067 187.252 15.912C187.205 16.1173 187.182 16.2807 187.182 16.402V20H185.502V13.28ZM197.188 13.28V19.398C197.188 20.0047 197.113 20.5507 196.964 21.036C196.814 21.5307 196.581 21.946 196.264 22.282C195.956 22.6273 195.564 22.8933 195.088 23.08C194.612 23.2667 194.047 23.36 193.394 23.36C193.123 23.36 192.834 23.3367 192.526 23.29C192.227 23.2433 191.928 23.1733 191.63 23.08C191.34 22.9867 191.06 22.87 190.79 22.73C190.519 22.59 190.276 22.4313 190.062 22.254L191.028 20.952C191.354 21.26 191.723 21.4933 192.134 21.652C192.544 21.82 192.96 21.904 193.38 21.904C193.781 21.904 194.117 21.8433 194.388 21.722C194.668 21.61 194.887 21.4513 195.046 21.246C195.214 21.0407 195.33 20.798 195.396 20.518C195.47 20.238 195.508 19.93 195.508 19.594V19.104H195.48C195.237 19.4307 194.924 19.6827 194.542 19.86C194.168 20.028 193.748 20.112 193.282 20.112C192.778 20.112 192.32 20.0187 191.91 19.832C191.499 19.6453 191.149 19.3933 190.86 19.076C190.58 18.7587 190.36 18.39 190.202 17.97C190.043 17.5407 189.964 17.088 189.964 16.612C189.964 16.1267 190.038 15.6693 190.188 15.24C190.346 14.8107 190.566 14.4373 190.846 14.12C191.135 13.8027 191.48 13.5507 191.882 13.364C192.292 13.1773 192.75 13.084 193.254 13.084C193.73 13.084 194.173 13.182 194.584 13.378C194.994 13.574 195.321 13.8773 195.564 14.288H195.592V13.28H197.188ZM193.604 14.456C193.296 14.456 193.02 14.512 192.778 14.624C192.544 14.736 192.344 14.89 192.176 15.086C192.017 15.2727 191.891 15.4967 191.798 15.758C191.714 16.0193 191.672 16.2993 191.672 16.598C191.672 16.8687 191.714 17.13 191.798 17.382C191.891 17.634 192.017 17.8627 192.176 18.068C192.344 18.264 192.544 18.4227 192.778 18.544C193.02 18.6653 193.291 18.726 193.59 18.726C193.898 18.726 194.173 18.67 194.416 18.558C194.668 18.4367 194.878 18.278 195.046 18.082C195.223 17.886 195.358 17.662 195.452 17.41C195.545 17.1487 195.592 16.878 195.592 16.598C195.592 16.3087 195.545 16.0333 195.452 15.772C195.358 15.5107 195.223 15.282 195.046 15.086C194.878 14.89 194.672 14.736 194.43 14.624C194.187 14.512 193.912 14.456 193.604 14.456ZM203.373 19.146H203.331C203.163 19.4447 202.893 19.692 202.519 19.888C202.146 20.0747 201.721 20.168 201.245 20.168C200.975 20.168 200.69 20.1307 200.391 20.056C200.102 19.9907 199.831 19.8787 199.579 19.72C199.337 19.552 199.131 19.3373 198.963 19.076C198.805 18.8053 198.725 18.474 198.725 18.082C198.725 17.578 198.865 17.1767 199.145 16.878C199.435 16.5793 199.803 16.3507 200.251 16.192C200.699 16.0333 201.194 15.9307 201.735 15.884C202.286 15.828 202.823 15.8 203.345 15.8V15.632C203.345 15.212 203.191 14.904 202.883 14.708C202.585 14.5027 202.225 14.4 201.805 14.4C201.451 14.4 201.11 14.4747 200.783 14.624C200.457 14.7733 200.186 14.9553 199.971 15.17L199.103 14.148C199.486 13.7933 199.925 13.5273 200.419 13.35C200.923 13.1727 201.432 13.084 201.945 13.084C202.543 13.084 203.033 13.168 203.415 13.336C203.807 13.504 204.115 13.7233 204.339 13.994C204.563 14.2647 204.717 14.568 204.801 14.904C204.895 15.24 204.941 15.576 204.941 15.912V20H203.373V19.146ZM203.345 16.934H202.967C202.697 16.934 202.412 16.948 202.113 16.976C201.815 16.9947 201.539 17.046 201.287 17.13C201.035 17.2047 200.825 17.3167 200.657 17.466C200.489 17.606 200.405 17.802 200.405 18.054C200.405 18.2127 200.438 18.348 200.503 18.46C200.578 18.5627 200.671 18.6467 200.783 18.712C200.895 18.7773 201.021 18.824 201.161 18.852C201.301 18.88 201.441 18.894 201.581 18.894C202.16 18.894 202.599 18.74 202.897 18.432C203.196 18.124 203.345 17.704 203.345 17.172V16.934ZM206.899 13.28H208.509V14.4H208.537C208.723 14.008 208.985 13.6907 209.321 13.448C209.657 13.2053 210.049 13.084 210.497 13.084C210.562 13.084 210.632 13.0887 210.707 13.098C210.781 13.098 210.847 13.1073 210.903 13.126V14.666C210.791 14.638 210.693 14.6193 210.609 14.61C210.534 14.6007 210.459 14.596 210.385 14.596C210.002 14.596 209.694 14.666 209.461 14.806C209.227 14.946 209.045 15.114 208.915 15.31C208.784 15.506 208.695 15.7067 208.649 15.912C208.602 16.1173 208.579 16.2807 208.579 16.402V20H206.899V13.28Z" fill="white"/>
</svg>
