<svg width="118" height="32" viewBox="0 0 118 32" fill="none" xmlns="http://www.w3.org/2000/svg">
<path d="M0 2C0 0.895431 0.895431 0 2 0H116C117.105 0 118 0.895431 118 2V30C118 31.1046 117.105 32 116 32H2C0.895433 32 0 31.1046 0 30V2Z" fill="white"/>
<path d="M24 9V23L35 16L24 9Z" fill="black"/>
<path d="M45.2174 11.5704H47.9725C48.3459 11.5704 48.708 11.6115 49.059 11.6936C49.4099 11.7683 49.7198 11.8952 49.9885 12.0744C50.2648 12.2536 50.4851 12.4888 50.6494 12.78C50.8136 13.0712 50.8958 13.4259 50.8958 13.844C50.8958 14.4189 50.7315 14.8893 50.4029 15.2552C50.0819 15.6136 49.6414 15.8563 49.0814 15.9832L51.1982 19.5H49.4958L47.6589 16.14H46.6286V19.5H45.2174V11.5704ZM47.7822 14.9864C47.9838 14.9864 48.1854 14.9715 48.387 14.9416C48.5886 14.9117 48.7678 14.8557 48.9246 14.7736C49.0888 14.6915 49.2232 14.5757 49.3278 14.4264C49.4323 14.2696 49.4846 14.0717 49.4846 13.8328C49.4846 13.6163 49.436 13.4408 49.339 13.3064C49.2419 13.1645 49.1187 13.0525 48.9694 12.9704C48.82 12.8883 48.6483 12.8323 48.4542 12.8024C48.2675 12.7725 48.0846 12.7576 47.9054 12.7576H46.6286V14.9864H47.7822ZM55.8483 16.2744C55.8483 16.1027 55.8221 15.9384 55.7699 15.7816C55.7251 15.6248 55.6504 15.4867 55.5459 15.3672C55.4413 15.2477 55.3069 15.1544 55.1426 15.0872C54.9858 15.0125 54.7992 14.9752 54.5827 14.9752C54.1795 14.9752 53.836 15.0984 53.5523 15.3448C53.276 15.5837 53.1229 15.8936 53.093 16.2744H55.8483ZM57.1923 16.8792C57.1923 16.9389 57.1923 16.9987 57.1923 17.0584C57.1923 17.1181 57.1885 17.1779 57.1811 17.2376H53.093C53.108 17.4317 53.1565 17.6109 53.2386 17.7752C53.3282 17.932 53.444 18.0701 53.5858 18.1896C53.7277 18.3016 53.8883 18.3912 54.0675 18.4584C54.2466 18.5256 54.4333 18.5592 54.6275 18.5592C54.9635 18.5592 55.2472 18.4995 55.4786 18.38C55.7101 18.2531 55.9005 18.0813 56.0499 17.8648L56.9458 18.5816C56.4157 19.2984 55.6466 19.6568 54.6387 19.6568C54.2205 19.6568 53.836 19.5933 53.4851 19.4664C53.1341 19.332 52.828 19.1453 52.5666 18.9064C52.3128 18.6675 52.1112 18.3763 51.9618 18.0328C51.82 17.6819 51.749 17.2861 51.749 16.8456C51.749 16.4125 51.82 16.0205 51.9618 15.6696C52.1112 15.3112 52.3128 15.0088 52.5666 14.7624C52.8205 14.5085 53.1192 14.3144 53.4626 14.18C53.8136 14.0381 54.1907 13.9672 54.5938 13.9672C54.9672 13.9672 55.3107 14.0307 55.6243 14.1576C55.9453 14.2771 56.2216 14.46 56.4531 14.7064C56.6845 14.9453 56.8637 15.2477 56.9907 15.6136C57.1251 15.972 57.1923 16.3939 57.1923 16.8792ZM59.7819 14.124V14.8744H59.8155C59.8827 14.7699 59.9686 14.6653 60.0731 14.5608C60.1851 14.4488 60.3195 14.3517 60.4763 14.2696C60.6331 14.18 60.8086 14.1091 61.0027 14.0568C61.2043 13.9971 61.4283 13.9672 61.6747 13.9672C62.0555 13.9672 62.4064 14.0419 62.7275 14.1912C63.0486 14.3331 63.3248 14.5309 63.5563 14.7848C63.7878 15.0387 63.967 15.3373 64.0939 15.6808C64.2208 16.0243 64.2843 16.3939 64.2843 16.7896C64.2843 17.1853 64.2208 17.5587 64.0939 17.9096C63.9744 18.2531 63.799 18.5555 63.5675 18.8168C63.3435 19.0707 63.0672 19.276 62.7387 19.4328C62.4176 19.5821 62.0518 19.6568 61.6411 19.6568C61.2603 19.6568 60.9094 19.5784 60.5883 19.4216C60.2747 19.2648 60.032 19.052 59.8603 18.7832H59.8379V22.188H58.4939V14.124H59.7819ZM62.9179 16.7896C62.9179 16.5805 62.8843 16.3752 62.8171 16.1736C62.7574 15.9645 62.664 15.7779 62.5371 15.6136C62.4102 15.4493 62.2496 15.3187 62.0555 15.2216C61.8614 15.1171 61.6336 15.0648 61.3723 15.0648C61.1259 15.0648 60.9056 15.1171 60.7115 15.2216C60.5174 15.3261 60.3494 15.4605 60.2075 15.6248C60.0731 15.7891 59.9686 15.9757 59.8939 16.1848C59.8267 16.3939 59.7931 16.6029 59.7931 16.812C59.7931 17.0211 59.8267 17.2301 59.8939 17.4392C59.9686 17.6408 60.0731 17.8237 60.2075 17.988C60.3494 18.1523 60.5174 18.2867 60.7115 18.3912C60.9056 18.4883 61.1259 18.5368 61.3723 18.5368C61.6336 18.5368 61.8614 18.4845 62.0555 18.38C62.2496 18.2755 62.4102 18.1411 62.5371 17.9768C62.664 17.8125 62.7574 17.6259 62.8171 17.4168C62.8843 17.2077 62.9179 16.9987 62.9179 16.7896ZM65.5814 14.124H66.8694V15.02H66.8918C67.0411 14.7064 67.2502 14.4525 67.519 14.2584C67.7878 14.0643 68.1014 13.9672 68.4598 13.9672C68.5121 13.9672 68.5681 13.9709 68.6278 13.9784C68.6875 13.9784 68.7398 13.9859 68.7846 14.0008V15.2328C68.695 15.2104 68.6166 15.1955 68.5494 15.188C68.4897 15.1805 68.4299 15.1768 68.3702 15.1768C68.0641 15.1768 67.8177 15.2328 67.631 15.3448C67.4443 15.4568 67.2987 15.5912 67.1942 15.748C67.0897 15.9048 67.0187 16.0653 66.9814 16.2296C66.9441 16.3939 66.9254 16.5245 66.9254 16.6216V19.5H65.5814V14.124ZM69.1506 16.7896C69.1506 16.364 69.2253 15.9795 69.3746 15.636C69.5314 15.2851 69.7405 14.9864 70.0018 14.74C70.2631 14.4936 70.573 14.3032 70.9314 14.1688C71.2898 14.0344 71.6706 13.9672 72.0738 13.9672C72.477 13.9672 72.8578 14.0344 73.2162 14.1688C73.5746 14.3032 73.8845 14.4936 74.1458 14.74C74.4071 14.9864 74.6125 15.2851 74.7618 15.636C74.9186 15.9795 74.997 16.364 74.997 16.7896C74.997 17.2152 74.9186 17.6035 74.7618 17.9544C74.6125 18.3053 74.4071 18.6077 74.1458 18.8616C73.8845 19.108 73.5746 19.3021 73.2162 19.444C72.8578 19.5859 72.477 19.6568 72.0738 19.6568C71.6706 19.6568 71.2898 19.5859 70.9314 19.444C70.573 19.3021 70.2631 19.108 70.0018 18.8616C69.7405 18.6077 69.5314 18.3053 69.3746 17.9544C69.2253 17.6035 69.1506 17.2152 69.1506 16.7896ZM70.517 16.7896C70.517 16.9987 70.5469 17.2077 70.6066 17.4168C70.6738 17.6259 70.7709 17.8125 70.8978 17.9768C71.0247 18.1411 71.1853 18.2755 71.3794 18.38C71.5735 18.4845 71.805 18.5368 72.0738 18.5368C72.3426 18.5368 72.5741 18.4845 72.7682 18.38C72.9623 18.2755 73.1229 18.1411 73.2498 17.9768C73.3767 17.8125 73.4701 17.6259 73.5298 17.4168C73.597 17.2077 73.6306 16.9987 73.6306 16.7896C73.6306 16.5805 73.597 16.3752 73.5298 16.1736C73.4701 15.9645 73.3767 15.7779 73.2498 15.6136C73.1229 15.4493 72.9623 15.3187 72.7682 15.2216C72.5741 15.1171 72.3426 15.0648 72.0738 15.0648C71.805 15.0648 71.5735 15.1171 71.3794 15.2216C71.1853 15.3187 71.0247 15.4493 70.8978 15.6136C70.7709 15.7779 70.6738 15.9645 70.6066 16.1736C70.5469 16.3752 70.517 16.5805 70.517 16.7896ZM81.7657 19.5H80.4889V18.6936H80.4665C80.2799 19.0072 80.0185 19.2461 79.6825 19.4104C79.354 19.5747 78.9993 19.6568 78.6185 19.6568C78.2079 19.6568 77.8383 19.5821 77.5097 19.4328C77.1887 19.276 76.9124 19.0707 76.6809 18.8168C76.4569 18.5555 76.2815 18.2531 76.1545 17.9096C76.0351 17.5587 75.9753 17.1853 75.9753 16.7896C75.9753 16.3939 76.0388 16.0243 76.1657 15.6808C76.2927 15.3373 76.4719 15.0387 76.7033 14.7848C76.9348 14.5309 77.2111 14.3331 77.5321 14.1912C77.8532 14.0419 78.2041 13.9672 78.5849 13.9672C78.8313 13.9672 79.0516 13.9971 79.2457 14.0568C79.4399 14.1091 79.6079 14.1763 79.7497 14.2584C79.8991 14.3405 80.026 14.4301 80.1305 14.5272C80.2351 14.6243 80.3209 14.7176 80.3881 14.8072H80.4217V11.0328H81.7657V19.5ZM77.3417 16.7896C77.3417 16.9987 77.3716 17.2077 77.4313 17.4168C77.4985 17.6259 77.5956 17.8125 77.7225 17.9768C77.8495 18.1411 78.01 18.2755 78.2041 18.38C78.3983 18.4845 78.626 18.5368 78.8873 18.5368C79.1337 18.5368 79.354 18.4883 79.5481 18.3912C79.7423 18.2867 79.9065 18.1523 80.0409 17.988C80.1828 17.8237 80.2873 17.6408 80.3545 17.4392C80.4292 17.2301 80.4665 17.0211 80.4665 16.812C80.4665 16.6029 80.4292 16.3939 80.3545 16.1848C80.2873 15.9757 80.1828 15.7891 80.0409 15.6248C79.9065 15.4605 79.7423 15.3261 79.5481 15.2216C79.354 15.1171 79.1337 15.0648 78.8873 15.0648C78.626 15.0648 78.3983 15.1171 78.2041 15.2216C78.01 15.3187 77.8495 15.4493 77.7225 15.6136C77.5956 15.7779 77.4985 15.9645 77.4313 16.1736C77.3716 16.3752 77.3417 16.5805 77.3417 16.7896ZM88.3042 19.5H87.0274V18.6376H87.005C86.8855 18.9064 86.6765 19.1453 86.3778 19.3544C86.0866 19.556 85.7394 19.6568 85.3362 19.6568C84.9853 19.6568 84.6829 19.5971 84.429 19.4776C84.1826 19.3507 83.9773 19.1864 83.813 18.9848C83.6562 18.7832 83.5405 18.5517 83.4658 18.2904C83.3911 18.0291 83.3538 17.7603 83.3538 17.484V14.124H84.6978V17.1032C84.6978 17.26 84.709 17.4243 84.7314 17.596C84.7538 17.7677 84.8023 17.9245 84.877 18.0664C84.9517 18.2008 85.0525 18.3128 85.1794 18.4024C85.3138 18.492 85.4893 18.5368 85.7058 18.5368C85.9149 18.5368 86.0978 18.4957 86.2546 18.4136C86.4189 18.324 86.5495 18.212 86.6466 18.0776C86.7511 17.9432 86.8295 17.7901 86.8818 17.6184C86.9341 17.4392 86.9602 17.26 86.9602 17.0808V14.124H88.3042V19.5ZM93.5909 15.6136C93.4864 15.4643 93.3296 15.3411 93.1205 15.244C92.9115 15.1395 92.6987 15.0872 92.4821 15.0872C92.2357 15.0872 92.0192 15.1395 91.8325 15.244C91.6459 15.3411 91.4891 15.4717 91.3621 15.636C91.2427 15.8003 91.1531 15.9869 91.0933 16.196C91.0336 16.3976 91.0037 16.6029 91.0037 16.812C91.0037 17.0211 91.0336 17.2301 91.0933 17.4392C91.1605 17.6408 91.2576 17.8237 91.3845 17.988C91.5115 18.1523 91.6683 18.2867 91.8549 18.3912C92.0491 18.4883 92.2731 18.5368 92.5269 18.5368C92.736 18.5368 92.9451 18.4957 93.1541 18.4136C93.3632 18.3315 93.5312 18.212 93.6581 18.0552L94.4981 18.9064C94.2741 19.1453 93.9867 19.332 93.6357 19.4664C93.2923 19.5933 92.9189 19.6568 92.5157 19.6568C92.12 19.6568 91.7429 19.5933 91.3845 19.4664C91.0336 19.3395 90.7237 19.1528 90.4549 18.9064C90.1936 18.66 89.9845 18.3613 89.8277 18.0104C89.6784 17.6595 89.6037 17.26 89.6037 16.812C89.6037 16.3789 89.6784 15.9869 89.8277 15.636C89.9845 15.2851 90.1936 14.9864 90.4549 14.74C90.7163 14.4936 91.0187 14.3032 91.3621 14.1688C91.7131 14.0344 92.0864 13.9672 92.4821 13.9672C92.8779 13.9672 93.2587 14.0419 93.6245 14.1912C93.9979 14.3405 94.2928 14.5459 94.5093 14.8072L93.5909 15.6136ZM95.4085 14.124H96.7525V19.5H95.4085V14.124ZM95.2181 12.2984C95.2181 12.0819 95.2965 11.8952 95.4533 11.7384C95.6176 11.5741 95.8229 11.492 96.0693 11.492C96.3157 11.492 96.521 11.5704 96.6853 11.7272C96.857 11.8765 96.9429 12.0669 96.9429 12.2984C96.9429 12.5299 96.857 12.724 96.6853 12.8808C96.521 13.0301 96.3157 13.1048 96.0693 13.1048C95.8229 13.1048 95.6176 13.0264 95.4533 12.8696C95.2965 12.7053 95.2181 12.5149 95.2181 12.2984ZM98.383 14.124H99.671V15.02H99.6934C99.8427 14.7064 100.052 14.4525 100.321 14.2584C100.589 14.0643 100.903 13.9672 101.261 13.9672C101.314 13.9672 101.37 13.9709 101.429 13.9784C101.489 13.9784 101.541 13.9859 101.586 14.0008V15.2328C101.497 15.2104 101.418 15.1955 101.351 15.188C101.291 15.1805 101.231 15.1768 101.172 15.1768C100.866 15.1768 100.619 15.2328 100.433 15.3448C100.246 15.4568 100.1 15.5912 99.9958 15.748C99.8912 15.9048 99.8203 16.0653 99.783 16.2296C99.7456 16.3939 99.727 16.5245 99.727 16.6216V19.5H98.383V14.124Z" fill="black"/>
</svg>
